<svg viewBox="0 0 330 200" xmlns="http://www.w3.org/2000/svg"><g><g><g><g><g><line x1="48.875" y1="176.828125" x2="43.875" y2="176.828125" style="visibility: inherit;" fill="rgb(255, 255, 255)" stroke="rgb(204, 204, 204)" stroke-width="1px"></line><line x1="48.875" y1="162.09244791666666" x2="43.875" y2="162.09244791666666" style="visibility: inherit;" fill="rgb(255, 255, 255)" stroke="rgb(204, 204, 204)" stroke-width="1px"></line><line x1="48.875" y1="147.35677083333331" x2="43.875" y2="147.35677083333331" style="visibility: inherit;" fill="rgb(255, 255, 255)" stroke="rgb(204, 204, 204)" stroke-width="1px"></line><line x1="48.875" y1="132.62109374999994" x2="43.875" y2="132.62109374999994" style="visibility: inherit;" fill="rgb(255, 255, 255)" stroke="rgb(204, 204, 204)" stroke-width="1px"></line><line x1="48.875" y1="117.88541666666661" x2="43.875" y2="117.88541666666661" style="visibility: inherit;" fill="rgb(255, 255, 255)" stroke="rgb(204, 204, 204)" stroke-width="1px"></line><line x1="48.875" y1="103.14973958333326" x2="43.875" y2="103.14973958333326" style="visibility: inherit;" fill="rgb(255, 255, 255)" stroke="rgb(204, 204, 204)" stroke-width="1px"></line><line x1="48.875" y1="88.41406249999991" x2="43.875" y2="88.41406249999991" style="visibility: inherit;" fill="rgb(255, 255, 255)" stroke="rgb(204, 204, 204)" stroke-width="1px"></line><line x1="48.875" y1="73.67838541666656" x2="43.875" y2="73.67838541666656" style="visibility: inherit;" fill="rgb(255, 255, 255)" stroke="rgb(204, 204, 204)" stroke-width="1px"></line><line x1="48.875" y1="58.94270833333323" x2="43.875" y2="58.94270833333323" style="visibility: inherit;" fill="rgb(255, 255, 255)" stroke="rgb(204, 204, 204)" stroke-width="1px"></line><line x1="48.875" y1="44.20703125000003" x2="43.875" y2="44.20703125000003" style="visibility: inherit;" fill="rgb(255, 255, 255)" stroke="rgb(204, 204, 204)" stroke-width="1px"></line><line x1="48.875" y1="29.471354166666686" x2="43.875" y2="29.471354166666686" style="visibility: inherit;" fill="rgb(255, 255, 255)" stroke="rgb(204, 204, 204)" stroke-width="1px"></line><line x1="48.875" y1="14.735677083333343" x2="43.875" y2="14.735677083333343" style="visibility: inherit;" fill="rgb(255, 255, 255)" stroke="rgb(204, 204, 204)" stroke-width="1px"></line><line x1="48.875" y1="0" x2="43.875" y2="0" style="visibility: inherit;" fill="rgb(255, 255, 255)" stroke="rgb(204, 204, 204)" stroke-width="1px"></line></g><g transform="translate(38.875, 0)"><text x="0" y="176.828125" dx="0em" dy="0.3em" style="text-anchor: end; visibility: hidden; font-family: &quot;Helvetica Neue&quot;, sans-serif; font-size: 12px; font-weight: 200;" fill="rgb(33, 33, 33)" stroke="none" stroke-width="1px">0.85</text><text x="0" y="162.09244791666666" dx="0em" dy="0.3em" style="text-anchor: end; visibility: inherit; font-family: &quot;Helvetica Neue&quot;, sans-serif; font-size: 12px; font-weight: 200;" fill="rgb(33, 33, 33)" stroke="none" stroke-width="1px">0.86</text><text x="0" y="147.35677083333331" dx="0em" dy="0.3em" style="text-anchor: end; visibility: hidden; font-family: &quot;Helvetica Neue&quot;, sans-serif; font-size: 12px; font-weight: 200;" fill="rgb(33, 33, 33)" stroke="none" stroke-width="1px">0.87</text><text x="0" y="132.62109374999994" dx="0em" dy="0.3em" style="text-anchor: end; visibility: inherit; font-family: &quot;Helvetica Neue&quot;, sans-serif; font-size: 12px; font-weight: 200;" fill="rgb(33, 33, 33)" stroke="none" stroke-width="1px">0.88</text><text x="0" y="117.88541666666661" dx="0em" dy="0.3em" style="text-anchor: end; visibility: hidden; font-family: &quot;Helvetica Neue&quot;, sans-serif; font-size: 12px; font-weight: 200;" fill="rgb(33, 33, 33)" stroke="none" stroke-width="1px">0.89</text><text x="0" y="103.14973958333326" dx="0em" dy="0.3em" style="text-anchor: end; visibility: inherit; font-family: &quot;Helvetica Neue&quot;, sans-serif; font-size: 12px; font-weight: 200;" fill="rgb(33, 33, 33)" stroke="none" stroke-width="1px">0.9</text><text x="0" y="88.41406249999991" dx="0em" dy="0.3em" style="text-anchor: end; visibility: hidden; font-family: &quot;Helvetica Neue&quot;, sans-serif; font-size: 12px; font-weight: 200;" fill="rgb(33, 33, 33)" stroke="none" stroke-width="1px">0.91</text><text x="0" y="73.67838541666656" dx="0em" dy="0.3em" style="text-anchor: end; visibility: inherit; font-family: &quot;Helvetica Neue&quot;, sans-serif; font-size: 12px; font-weight: 200;" fill="rgb(33, 33, 33)" stroke="none" stroke-width="1px">0.92</text><text x="0" y="58.94270833333323" dx="0em" dy="0.3em" style="text-anchor: end; visibility: hidden; font-family: &quot;Helvetica Neue&quot;, sans-serif; font-size: 12px; font-weight: 200;" fill="rgb(33, 33, 33)" stroke="none" stroke-width="1px">0.93</text><text x="0" y="44.20703125000003" dx="0em" dy="0.3em" style="text-anchor: end; visibility: inherit; font-family: &quot;Helvetica Neue&quot;, sans-serif; font-size: 12px; font-weight: 200;" fill="rgb(33, 33, 33)" stroke="none" stroke-width="1px">0.94</text><text x="0" y="29.471354166666686" dx="0em" dy="0.3em" style="text-anchor: end; visibility: hidden; font-family: &quot;Helvetica Neue&quot;, sans-serif; font-size: 12px; font-weight: 200;" fill="rgb(33, 33, 33)" stroke="none" stroke-width="1px">0.95</text><text x="0" y="14.735677083333343" dx="0em" dy="0.3em" style="text-anchor: end; visibility: inherit; font-family: &quot;Helvetica Neue&quot;, sans-serif; font-size: 12px; font-weight: 200;" fill="rgb(33, 33, 33)" stroke="none" stroke-width="1px">0.96</text><text x="0" y="0" dx="0em" dy="0.3em" style="text-anchor: end; visibility: hidden; font-family: &quot;Helvetica Neue&quot;, sans-serif; font-size: 12px; font-weight: 200;" fill="rgb(33, 33, 33)" stroke="none" stroke-width="1px">0.97</text></g><line x1="48.875" y1="0" x2="48.875" y2="176.828125" fill="rgb(255, 255, 255)" stroke="rgb(204, 204, 204)" stroke-width="1px"></line></g></g><g transform="translate(48, 0)" clip-path="url(#clip_0)"><clipPath id="clip_0"><rect width="281" height="176"></rect></clipPath><g><g><g><line x1="0" y1="0" x2="0" y2="176.828125" fill="rgb(255, 255, 255)" stroke="rgb(66, 66, 66)" stroke-width="1px" opacity="0.25"></line><line x1="40.160714285714285" y1="0" x2="40.160714285714285" y2="176.828125" fill="rgb(255, 255, 255)" stroke="rgb(66, 66, 66)" stroke-width="1px" opacity="0.25"></line><line x1="80.32142857142857" y1="0" x2="80.32142857142857" y2="176.828125" fill="rgb(255, 255, 255)" stroke="rgb(66, 66, 66)" stroke-width="1px" opacity="0.25"></line><line x1="120.48214285714285" y1="0" x2="120.48214285714285" y2="176.828125" fill="rgb(255, 255, 255)" stroke="rgb(66, 66, 66)" stroke-width="1px" opacity="0.25"></line><line x1="160.64285714285714" y1="0" x2="160.64285714285714" y2="176.828125" fill="rgb(255, 255, 255)" stroke="rgb(66, 66, 66)" stroke-width="1px" opacity="0.25"></line><line x1="200.80357142857144" y1="0" x2="200.80357142857144" y2="176.828125" fill="rgb(255, 255, 255)" stroke="rgb(66, 66, 66)" stroke-width="1px" opacity="0.25"></line><line x1="240.9642857142857" y1="0" x2="240.9642857142857" y2="176.828125" fill="rgb(255, 255, 255)" stroke="rgb(66, 66, 66)" stroke-width="1px" opacity="0.25"></line><line x1="281.125" y1="0" x2="281.125" y2="176.828125" fill="rgb(255, 255, 255)" stroke="rgb(66, 66, 66)" stroke-width="1px" opacity="0.25"></line></g><g><line x1="0" y1="176.828125" x2="281.125" y2="176.828125" fill="rgb(255, 255, 255)" stroke="rgb(66, 66, 66)" stroke-width="1px" opacity="0.25"></line><line x1="0" y1="162.09244791666666" x2="281.125" y2="162.09244791666666" fill="rgb(255, 255, 255)" stroke="rgb(66, 66, 66)" stroke-width="1px" opacity="0.25"></line><line x1="0" y1="147.35677083333331" x2="281.125" y2="147.35677083333331" fill="rgb(255, 255, 255)" stroke="rgb(66, 66, 66)" stroke-width="1px" opacity="0.25"></line><line x1="0" y1="132.62109374999994" x2="281.125" y2="132.62109374999994" fill="rgb(255, 255, 255)" stroke="rgb(66, 66, 66)" stroke-width="1px" opacity="0.25"></line><line x1="0" y1="117.88541666666661" x2="281.125" y2="117.88541666666661" fill="rgb(255, 255, 255)" stroke="rgb(66, 66, 66)" stroke-width="1px" opacity="0.25"></line><line x1="0" y1="103.14973958333326" x2="281.125" y2="103.14973958333326" fill="rgb(255, 255, 255)" stroke="rgb(66, 66, 66)" stroke-width="1px" opacity="0.25"></line><line x1="0" y1="88.41406249999991" x2="281.125" y2="88.41406249999991" fill="rgb(255, 255, 255)" stroke="rgb(66, 66, 66)" stroke-width="1px" opacity="0.25"></line><line x1="0" y1="73.67838541666656" x2="281.125" y2="73.67838541666656" fill="rgb(255, 255, 255)" stroke="rgb(66, 66, 66)" stroke-width="1px" opacity="0.25"></line><line x1="0" y1="58.94270833333323" x2="281.125" y2="58.94270833333323" fill="rgb(255, 255, 255)" stroke="rgb(66, 66, 66)" stroke-width="1px" opacity="0.25"></line><line x1="0" y1="44.20703125000003" x2="281.125" y2="44.20703125000003" fill="rgb(255, 255, 255)" stroke="rgb(66, 66, 66)" stroke-width="1px" opacity="0.25"></line><line x1="0" y1="29.471354166666686" x2="281.125" y2="29.471354166666686" fill="rgb(255, 255, 255)" stroke="rgb(66, 66, 66)" stroke-width="1px" opacity="0.25"></line><line x1="0" y1="14.735677083333343" x2="281.125" y2="14.735677083333343" fill="rgb(255, 255, 255)" stroke="rgb(66, 66, 66)" stroke-width="1px" opacity="0.25"></line><line x1="0" y1="0" x2="281.125" y2="0" fill="rgb(255, 255, 255)" stroke="rgb(66, 66, 66)" stroke-width="1px" opacity="0.25"></line></g></g></g><g><g><line x1="0" y1="1429.3606770833333" x2="281.125" y2="1429.3606770833333" fill="rgb(255, 255, 255)" stroke="rgb(153, 153, 153)" stroke-width="1.5px"></line></g></g><g><g><line x1="40.160714285714285" y1="0" x2="40.160714285714285" y2="176.828125" fill="rgb(255, 255, 255)" stroke="rgb(153, 153, 153)" stroke-width="1.5px"></line></g></g><g><g><g><g><g><path stroke="rgb(0, 119, 187)" stroke-width="2px" d="M40.160714285714285,10.588921046505334L48.19285714285714,10.588921046505334L56.225,10.588921046505334L64.25714285714285,10.588921046505334L72.28928571428571,10.588921046505334L80.32142857142857,10.588921046505334L88.35357142857143,10.588921046505334L96.38571428571429,10.588921046505334L104.41785714285714,10.588921046505334L112.45,10.588921046505334L120.48214285714285,10.588921046505334L128.5142857142857,10.588921046505334L136.54642857142858,10.588921046505334L144.57857142857142,10.588921046505334L152.61071428571427,10.588921046505334L160.64285714285714,10.588921046505334L168.67499999999998,10.588921046505334L176.70714285714286,10.588921046505334L184.7392857142857,10.588921046505334L192.77142857142857,10.588921046505334L200.80357142857144,10.588921046505334L208.8357142857143,10.588921046505334L216.86785714285716,10.588921046505334L224.9,10.588921046505334L232.93214285714288,10.588921046505334L240.9642857142857,10.588921046505334L248.99642857142857,10.588921046505334L257.0285714285714,10.588921046505334L265.06071428571425,10.588921046505334" style="fill: none;" fill="none"></path></g><g><path stroke="rgb(255, 112, 67)" stroke-width="2px" d="M40.160714285714285,155.9036451069017L48.19285714285714,64.5078742593674L56.225,37.04740446879646L64.25714285714285,25.367005695835815L72.28928571428571,20.30393775812243L80.32142857142857,17.45366195177445L88.35357142857143,16.19307149354762L96.38571428571429,15.115817667445498L104.41785714285714,14.241831699604546L112.45,13.698429805488189L120.48214285714285,14.234354407607924L128.5142857142857,14.241217934463918L136.54642857142858,13.61596229618064L144.57857142857142,14.625496368793335L152.61071428571427,14.080716920401358L160.64285714285714,14.089842930537685L168.67499999999998,14.157243904474598L176.70714285714286,14.282225330758962L184.7392857142857,13.867566527561564L192.77142857142857,14.01441624912502L200.80357142857144,14.03708356257468L208.8357142857143,14.065887649303647L216.86785714285716,14.581010793671936L224.9,13.702071719095755L232.93214285714288,13.985987286278203L240.9642857142857,13.8505898052953L248.99642857142857,13.780415864371008L257.0285714285714,14.382654077909223L265.06071428571425,14.130788397667772" style="fill: none;" fill="none"></path></g></g></g></g><g opacity="0.2"><g><g><g><path stroke="rgb(0, 119, 187)" stroke-width="2px" d="M40.160714285714285,10.588921046505334L48.19285714285714,10.588921046505334L56.225,10.588921046505334L64.25714285714285,10.588921046505334L72.28928571428571,10.588921046505334L80.32142857142857,10.588921046505334L88.35357142857143,10.588921046505334L96.38571428571429,10.588921046505334L104.41785714285714,10.588921046505334L112.45,10.588921046505334L120.48214285714285,10.588921046505334L128.5142857142857,10.588921046505334L136.54642857142858,10.588921046505334L144.57857142857142,10.588921046505334L152.61071428571427,10.588921046505334L160.64285714285714,10.588921046505334L168.67499999999998,10.588921046505334L176.70714285714286,10.588921046505334L184.7392857142857,10.588921046505334L192.77142857142857,10.588921046505334L200.80357142857144,10.588921046505334L208.8357142857143,10.588921046505334L216.86785714285716,10.588921046505334L224.9,10.588921046505334L232.93214285714288,10.588921046505334L240.9642857142857,10.588921046505334L248.99642857142857,10.588921046505334L257.0285714285714,10.588921046505334L265.06071428571425,10.588921046505334" style="fill: none;" fill="none"></path></g><g><path stroke="rgb(255, 112, 67)" stroke-width="2px" d="M40.160714285714285,155.9036451069017L48.19285714285714,14.331596064070823L56.225,13.694993498424651L64.25714285714285,13.501237253968895L72.28928571428571,14.700576110742958L80.32142857142857,14.157074913692952L88.35357142857143,14.700576110742958L96.38571428571429,13.82419360522178L104.41785714285714,13.186712724777522L112.45,13.039946322018864L120.48214285714285,14.885110049818934L128.5142857142857,14.249561461930455L136.54642857142858,12.855412382942916L144.57857142857142,15.853891272097798L152.61071428571427,13.417709516671778L160.64285714285714,14.100950598095835L168.67499999999998,14.239285178792954L176.70714285714286,14.434358895445826L184.7392857142857,13.362814841791959L192.77142857142857,14.193173651893915L200.80357142857144,14.064676196935238L208.8357142857143,14.100950598095835L216.86785714285716,15.208066401071818L224.9,12.632144761271746L232.93214285714288,14.331596064070823L240.9642857142857,13.685771193044843L248.99642857142857,13.694993498424651L257.0285714285714,15.115755515793921L265.06071428571425,13.82419360522178" style="fill: none;" fill="none"></path></g></g></g></g></g></g><g transform="translate(48, 176)" clip-path="url(#clip_1)"><clipPath id="clip_1"><rect width="281" height="23"></rect></clipPath><g><g><line x1="0" y1="0" x2="0" y2="5" style="visibility: inherit;" fill="rgb(255, 255, 255)" stroke="rgb(204, 204, 204)" stroke-width="1px"></line><line x1="40.160714285714285" y1="0" x2="40.160714285714285" y2="5" style="visibility: inherit;" fill="rgb(255, 255, 255)" stroke="rgb(204, 204, 204)" stroke-width="1px"></line><line x1="80.32142857142857" y1="0" x2="80.32142857142857" y2="5" style="visibility: inherit;" fill="rgb(255, 255, 255)" stroke="rgb(204, 204, 204)" stroke-width="1px"></line><line x1="120.48214285714285" y1="0" x2="120.48214285714285" y2="5" style="visibility: inherit;" fill="rgb(255, 255, 255)" stroke="rgb(204, 204, 204)" stroke-width="1px"></line><line x1="160.64285714285714" y1="0" x2="160.64285714285714" y2="5" style="visibility: inherit;" fill="rgb(255, 255, 255)" stroke="rgb(204, 204, 204)" stroke-width="1px"></line><line x1="200.80357142857144" y1="0" x2="200.80357142857144" y2="5" style="visibility: inherit;" fill="rgb(255, 255, 255)" stroke="rgb(204, 204, 204)" stroke-width="1px"></line><line x1="240.9642857142857" y1="0" x2="240.9642857142857" y2="5" style="visibility: inherit;" fill="rgb(255, 255, 255)" stroke="rgb(204, 204, 204)" stroke-width="1px"></line><line x1="281.125" y1="0" x2="281.125" y2="5" style="visibility: inherit;" fill="rgb(255, 255, 255)" stroke="rgb(204, 204, 204)" stroke-width="1px"></line></g><g transform="translate(0, 8)"><text x="0" y="0" dx="0em" dy="0.95em" style="text-anchor: middle; visibility: hidden; font-family: &quot;Helvetica Neue&quot;, sans-serif; font-size: 12px; font-weight: 200;" fill="rgb(33, 33, 33)" stroke="none" stroke-width="1px">-5</text><text x="40.160714285714285" y="0" dx="0em" dy="0.95em" style="text-anchor: middle; visibility: inherit; font-family: &quot;Helvetica Neue&quot;, sans-serif; font-size: 12px; font-weight: 200;" fill="rgb(33, 33, 33)" stroke="none" stroke-width="1px">0</text><text x="80.32142857142857" y="0" dx="0em" dy="0.95em" style="text-anchor: middle; visibility: inherit; font-family: &quot;Helvetica Neue&quot;, sans-serif; font-size: 12px; font-weight: 200;" fill="rgb(33, 33, 33)" stroke="none" stroke-width="1px">5</text><text x="120.48214285714285" y="0" dx="0em" dy="0.95em" style="text-anchor: middle; visibility: inherit; font-family: &quot;Helvetica Neue&quot;, sans-serif; font-size: 12px; font-weight: 200;" fill="rgb(33, 33, 33)" stroke="none" stroke-width="1px">10</text><text x="160.64285714285714" y="0" dx="0em" dy="0.95em" style="text-anchor: middle; visibility: inherit; font-family: &quot;Helvetica Neue&quot;, sans-serif; font-size: 12px; font-weight: 200;" fill="rgb(33, 33, 33)" stroke="none" stroke-width="1px">15</text><text x="200.80357142857144" y="0" dx="0em" dy="0.95em" style="text-anchor: middle; visibility: inherit; font-family: &quot;Helvetica Neue&quot;, sans-serif; font-size: 12px; font-weight: 200;" fill="rgb(33, 33, 33)" stroke="none" stroke-width="1px">20</text><text x="240.9642857142857" y="0" dx="0em" dy="0.95em" style="text-anchor: middle; visibility: inherit; font-family: &quot;Helvetica Neue&quot;, sans-serif; font-size: 12px; font-weight: 200;" fill="rgb(33, 33, 33)" stroke="none" stroke-width="1px">25</text><text x="281.125" y="0" dx="0em" dy="0.95em" style="text-anchor: middle; visibility: hidden; font-family: &quot;Helvetica Neue&quot;, sans-serif; font-size: 12px; font-weight: 200;" fill="rgb(33, 33, 33)" stroke="none" stroke-width="1px">30</text></g><line x1="0" y1="0" x2="281.125" y2="0" fill="rgb(255, 255, 255)" stroke="rgb(204, 204, 204)" stroke-width="1px"></line></g></g></g></g></svg>