<svg viewBox="0 0 330 200" xmlns="http://www.w3.org/2000/svg"><g><g><g><g><g><line x1="39.15625" y1="176.828125" x2="34.15625" y2="176.828125" style="visibility: inherit;" fill="rgb(0, 0, 0)" stroke="rgb(204, 204, 204)" stroke-width="1px"></line><line x1="39.15625" y1="162.09244791666666" x2="34.15625" y2="162.09244791666666" style="visibility: inherit;" fill="rgb(0, 0, 0)" stroke="rgb(204, 204, 204)" stroke-width="1px"></line><line x1="39.15625" y1="147.35677083333334" x2="34.15625" y2="147.35677083333334" style="visibility: inherit;" fill="rgb(0, 0, 0)" stroke="rgb(204, 204, 204)" stroke-width="1px"></line><line x1="39.15625" y1="132.62109375" x2="34.15625" y2="132.62109375" style="visibility: inherit;" fill="rgb(0, 0, 0)" stroke="rgb(204, 204, 204)" stroke-width="1px"></line><line x1="39.15625" y1="117.88541666666666" x2="34.15625" y2="117.88541666666666" style="visibility: inherit;" fill="rgb(0, 0, 0)" stroke="rgb(204, 204, 204)" stroke-width="1px"></line><line x1="39.15625" y1="103.14973958333333" x2="34.15625" y2="103.14973958333333" style="visibility: inherit;" fill="rgb(0, 0, 0)" stroke="rgb(204, 204, 204)" stroke-width="1px"></line><line x1="39.15625" y1="88.4140625" x2="34.15625" y2="88.4140625" style="visibility: inherit;" fill="rgb(0, 0, 0)" stroke="rgb(204, 204, 204)" stroke-width="1px"></line><line x1="39.15625" y1="73.67838541666666" x2="34.15625" y2="73.67838541666666" style="visibility: inherit;" fill="rgb(0, 0, 0)" stroke="rgb(204, 204, 204)" stroke-width="1px"></line><line x1="39.15625" y1="58.942708333333314" x2="34.15625" y2="58.942708333333314" style="visibility: inherit;" fill="rgb(0, 0, 0)" stroke="rgb(204, 204, 204)" stroke-width="1px"></line><line x1="39.15625" y1="44.20703125" x2="34.15625" y2="44.20703125" style="visibility: inherit;" fill="rgb(0, 0, 0)" stroke="rgb(204, 204, 204)" stroke-width="1px"></line><line x1="39.15625" y1="29.471354166666657" x2="34.15625" y2="29.471354166666657" style="visibility: inherit;" fill="rgb(0, 0, 0)" stroke="rgb(204, 204, 204)" stroke-width="1px"></line><line x1="39.15625" y1="14.735677083333343" x2="34.15625" y2="14.735677083333343" style="visibility: inherit;" fill="rgb(0, 0, 0)" stroke="rgb(204, 204, 204)" stroke-width="1px"></line><line x1="39.15625" y1="0" x2="34.15625" y2="0" style="visibility: inherit;" fill="rgb(0, 0, 0)" stroke="rgb(204, 204, 204)" stroke-width="1px"></line></g><g transform="translate(29.15625, 0)"><text x="0" y="176.828125" dx="0em" dy="0.3em" style="text-anchor: end; visibility: hidden; font-family: &quot;Helvetica Neue&quot;, sans-serif; font-size: 12px; font-weight: 200;" fill="rgb(33, 33, 33)" stroke="none" stroke-width="1px">0.1</text><text x="0" y="162.09244791666666" dx="0em" dy="0.3em" style="text-anchor: end; visibility: inherit; font-family: &quot;Helvetica Neue&quot;, sans-serif; font-size: 12px; font-weight: 200;" fill="rgb(33, 33, 33)" stroke="none" stroke-width="1px">0.2</text><text x="0" y="147.35677083333334" dx="0em" dy="0.3em" style="text-anchor: end; visibility: hidden; font-family: &quot;Helvetica Neue&quot;, sans-serif; font-size: 12px; font-weight: 200;" fill="rgb(33, 33, 33)" stroke="none" stroke-width="1px">0.3</text><text x="0" y="132.62109375" dx="0em" dy="0.3em" style="text-anchor: end; visibility: inherit; font-family: &quot;Helvetica Neue&quot;, sans-serif; font-size: 12px; font-weight: 200;" fill="rgb(33, 33, 33)" stroke="none" stroke-width="1px">0.4</text><text x="0" y="117.88541666666666" dx="0em" dy="0.3em" style="text-anchor: end; visibility: hidden; font-family: &quot;Helvetica Neue&quot;, sans-serif; font-size: 12px; font-weight: 200;" fill="rgb(33, 33, 33)" stroke="none" stroke-width="1px">0.5</text><text x="0" y="103.14973958333333" dx="0em" dy="0.3em" style="text-anchor: end; visibility: inherit; font-family: &quot;Helvetica Neue&quot;, sans-serif; font-size: 12px; font-weight: 200;" fill="rgb(33, 33, 33)" stroke="none" stroke-width="1px">0.6</text><text x="0" y="88.4140625" dx="0em" dy="0.3em" style="text-anchor: end; visibility: hidden; font-family: &quot;Helvetica Neue&quot;, sans-serif; font-size: 12px; font-weight: 200;" fill="rgb(33, 33, 33)" stroke="none" stroke-width="1px">0.7</text><text x="0" y="73.67838541666666" dx="0em" dy="0.3em" style="text-anchor: end; visibility: inherit; font-family: &quot;Helvetica Neue&quot;, sans-serif; font-size: 12px; font-weight: 200;" fill="rgb(33, 33, 33)" stroke="none" stroke-width="1px">0.8</text><text x="0" y="58.942708333333314" dx="0em" dy="0.3em" style="text-anchor: end; visibility: hidden; font-family: &quot;Helvetica Neue&quot;, sans-serif; font-size: 12px; font-weight: 200;" fill="rgb(33, 33, 33)" stroke="none" stroke-width="1px">0.9</text><text x="0" y="44.20703125" dx="0em" dy="0.3em" style="text-anchor: end; visibility: inherit; font-family: &quot;Helvetica Neue&quot;, sans-serif; font-size: 12px; font-weight: 200;" fill="rgb(33, 33, 33)" stroke="none" stroke-width="1px">1</text><text x="0" y="29.471354166666657" dx="0em" dy="0.3em" style="text-anchor: end; visibility: hidden; font-family: &quot;Helvetica Neue&quot;, sans-serif; font-size: 12px; font-weight: 200;" fill="rgb(33, 33, 33)" stroke="none" stroke-width="1px">1.1</text><text x="0" y="14.735677083333343" dx="0em" dy="0.3em" style="text-anchor: end; visibility: inherit; font-family: &quot;Helvetica Neue&quot;, sans-serif; font-size: 12px; font-weight: 200;" fill="rgb(33, 33, 33)" stroke="none" stroke-width="1px">1.2</text><text x="0" y="0" dx="0em" dy="0.3em" style="text-anchor: end; visibility: hidden; font-family: &quot;Helvetica Neue&quot;, sans-serif; font-size: 12px; font-weight: 200;" fill="rgb(33, 33, 33)" stroke="none" stroke-width="1px">1.3</text></g><line x1="39.15625" y1="0" x2="39.15625" y2="176.828125" fill="rgb(0, 0, 0)" stroke="rgb(204, 204, 204)" stroke-width="1px"></line></g></g><g transform="translate(39, 0)" clip-path="url(#clip_0)"><clipPath id="clip_0"><rect width="290" height="176"></rect></clipPath><g><g><g><line x1="0" y1="0" x2="0" y2="176.828125" fill="rgb(0, 0, 0)" stroke="rgb(66, 66, 66)" stroke-width="1px" opacity="0.25"></line><line x1="41.54910714285714" y1="0" x2="41.54910714285714" y2="176.828125" fill="rgb(0, 0, 0)" stroke="rgb(66, 66, 66)" stroke-width="1px" opacity="0.25"></line><line x1="83.09821428571428" y1="0" x2="83.09821428571428" y2="176.828125" fill="rgb(0, 0, 0)" stroke="rgb(66, 66, 66)" stroke-width="1px" opacity="0.25"></line><line x1="124.64732142857142" y1="0" x2="124.64732142857142" y2="176.828125" fill="rgb(0, 0, 0)" stroke="rgb(66, 66, 66)" stroke-width="1px" opacity="0.25"></line><line x1="166.19642857142856" y1="0" x2="166.19642857142856" y2="176.828125" fill="rgb(0, 0, 0)" stroke="rgb(66, 66, 66)" stroke-width="1px" opacity="0.25"></line><line x1="207.74553571428572" y1="0" x2="207.74553571428572" y2="176.828125" fill="rgb(0, 0, 0)" stroke="rgb(66, 66, 66)" stroke-width="1px" opacity="0.25"></line><line x1="249.29464285714283" y1="0" x2="249.29464285714283" y2="176.828125" fill="rgb(0, 0, 0)" stroke="rgb(66, 66, 66)" stroke-width="1px" opacity="0.25"></line><line x1="290.84375" y1="0" x2="290.84375" y2="176.828125" fill="rgb(0, 0, 0)" stroke="rgb(66, 66, 66)" stroke-width="1px" opacity="0.25"></line></g><g><line x1="0" y1="176.828125" x2="290.84375" y2="176.828125" fill="rgb(0, 0, 0)" stroke="rgb(66, 66, 66)" stroke-width="1px" opacity="0.25"></line><line x1="0" y1="162.09244791666666" x2="290.84375" y2="162.09244791666666" fill="rgb(0, 0, 0)" stroke="rgb(66, 66, 66)" stroke-width="1px" opacity="0.25"></line><line x1="0" y1="147.35677083333334" x2="290.84375" y2="147.35677083333334" fill="rgb(0, 0, 0)" stroke="rgb(66, 66, 66)" stroke-width="1px" opacity="0.25"></line><line x1="0" y1="132.62109375" x2="290.84375" y2="132.62109375" fill="rgb(0, 0, 0)" stroke="rgb(66, 66, 66)" stroke-width="1px" opacity="0.25"></line><line x1="0" y1="117.88541666666666" x2="290.84375" y2="117.88541666666666" fill="rgb(0, 0, 0)" stroke="rgb(66, 66, 66)" stroke-width="1px" opacity="0.25"></line><line x1="0" y1="103.14973958333333" x2="290.84375" y2="103.14973958333333" fill="rgb(0, 0, 0)" stroke="rgb(66, 66, 66)" stroke-width="1px" opacity="0.25"></line><line x1="0" y1="88.4140625" x2="290.84375" y2="88.4140625" fill="rgb(0, 0, 0)" stroke="rgb(66, 66, 66)" stroke-width="1px" opacity="0.25"></line><line x1="0" y1="73.67838541666666" x2="290.84375" y2="73.67838541666666" fill="rgb(0, 0, 0)" stroke="rgb(66, 66, 66)" stroke-width="1px" opacity="0.25"></line><line x1="0" y1="58.942708333333314" x2="290.84375" y2="58.942708333333314" fill="rgb(0, 0, 0)" stroke="rgb(66, 66, 66)" stroke-width="1px" opacity="0.25"></line><line x1="0" y1="44.20703125" x2="290.84375" y2="44.20703125" fill="rgb(0, 0, 0)" stroke="rgb(66, 66, 66)" stroke-width="1px" opacity="0.25"></line><line x1="0" y1="29.471354166666657" x2="290.84375" y2="29.471354166666657" fill="rgb(0, 0, 0)" stroke="rgb(66, 66, 66)" stroke-width="1px" opacity="0.25"></line><line x1="0" y1="14.735677083333343" x2="290.84375" y2="14.735677083333343" fill="rgb(0, 0, 0)" stroke="rgb(66, 66, 66)" stroke-width="1px" opacity="0.25"></line><line x1="0" y1="0" x2="290.84375" y2="0" fill="rgb(0, 0, 0)" stroke="rgb(66, 66, 66)" stroke-width="1px" opacity="0.25"></line></g></g></g><g><g><line x1="0" y1="191.56380208333334" x2="290.84375" y2="191.56380208333334" fill="rgb(0, 0, 0)" stroke="rgb(153, 153, 153)" stroke-width="1.5px"></line></g></g><g><g><line x1="41.54910714285714" y1="0" x2="41.54910714285714" y2="176.828125" fill="rgb(0, 0, 0)" stroke="rgb(153, 153, 153)" stroke-width="1.5px"></line></g></g><g><g><g><g><g><path stroke="rgb(0, 119, 187)" stroke-width="2px" d="M41.54910714285714,158.23142832405088L49.85892857142857,160.6075675386263L58.16875,161.76106877624332L66.47857142857143,162.38220247766705L74.78839285714285,162.71306262770233L83.09821428571428,162.90552157640127L91.40803571428572,163.11840244569368L99.71785714285714,163.1695337691181L108.02767857142858,163.38887474391493L116.3375,163.55902767630417L124.64732142857142,163.6697781737698L132.95714285714286,163.73085502810153L141.2669642857143,163.83883463349105L149.5767857142857,163.89969101302285L157.88660714285714,163.9707454518619L166.19642857142856,164.00522814414182L174.50625,164.04961114218344L182.81607142857143,164.10428797142228L191.12589285714284,164.0914500443364L199.43571428571428,164.19804964703582L207.74553571428572,164.30600533794455L216.05535714285716,164.36602637575956L224.36517857142857,164.3822675091286L232.675,164.41422718186743L240.98482142857145,164.51222105998056L249.29464285714283,164.57347762801513L257.6044642857143,164.57697363709812L265.9142857142857,164.56528325315836L274.2241071428571,164.58570137147854" style="fill: none;" fill="none"></path></g><g><path stroke="rgb(255, 112, 67)" stroke-width="2px" d="M41.54910714285714,21.26327050353092L49.85892857142857,109.43054128553692L58.16875,136.65818075172942L66.47857142857143,148.3982864599058L74.78839285714285,154.21991112837327L83.09821428571428,157.23920244587478L91.40803571428572,159.0645749943255L99.71785714285714,159.98225282422328L108.02767857142858,160.70559560975553L116.3375,161.0886563308922L124.64732142857142,161.37732200081706L132.95714285714286,161.60057989482374L141.2669642857143,161.75005206788504L149.5767857142857,161.8188448224014L157.88660714285714,162.13993242340104L166.19642857142856,162.28370061038228L174.50625,162.3733280474548L182.81607142857143,162.5096545944272L191.12589285714284,162.82685870922515L199.43571428571428,162.9575664472504L207.74553571428572,163.10450132480233L216.05535714285716,163.31519286723255L224.36517857142857,163.29079804461065L232.675,163.6508902026577L240.98482142857145,163.66100293601778L249.29464285714283,163.8225795765139L257.6044642857143,163.81402479648204L265.9142857142857,163.85729637349266L274.2241071428571,163.98390106064272" style="fill: none;" fill="none"></path></g></g></g></g><g opacity="0.2"><g><g><g><path stroke="rgb(0, 119, 187)" stroke-width="2px" d="M41.54910714285714,158.23142832405088L49.85892857142857,161.91206796742821L58.16875,162.74200738221407L66.47857142857143,163.0131936634813L74.78839285714285,163.07922976157474L83.09821428571428,163.12811676323568L91.40803571428572,163.3704460118121L99.71785714285714,163.23084007044477L108.02767857142858,163.653673988961L116.3375,163.76521557674278L124.64732142857142,163.8042588653043L132.95714285714286,163.80510204751045L141.2669642857143,163.970179118022L149.5767857142857,163.97374068452822L157.88660714285714,164.05722011451144L166.19642857142856,164.04719854266537L174.50625,164.1036346600158L182.81607142857143,164.17084330836465L191.12589285714284,164.0758228219347L199.43571428571428,164.327811337503L207.74553571428572,164.437418436942L216.05535714285716,164.43908943084534L224.36517857142857,164.40203772108848L232.675,164.4531314886796L240.98482142857145,164.63150844102105L249.29464285714283,164.64804491288183L257.6044642857143,164.58122931040512L265.9142857142857,164.5510526097302L274.2241071428571,164.6105562415129" style="fill: none;" fill="none"></path></g><g><path stroke="rgb(255, 112, 67)" stroke-width="2px" d="M41.54910714285714,21.26327050353092L49.85892857142857,157.83437294485825L58.16875,159.81259258141895L66.47857142857143,160.3247093949467L74.78839285714285,160.6627771523005L83.09821428571428,160.73127033604155L91.40803571428572,161.22575278421087L99.71785714285714,161.08254575217143L108.02767857142858,161.57885070354678L116.3375,161.55284160658871L124.64732142857142,161.72783924274458L132.95714285714286,161.87197948425697L141.2669642857143,161.93186737876385L149.5767857142857,161.90255142659103L157.88660714285714,162.5307024080927L166.19642857142856,162.4586871820114L174.50625,162.4824236394294L182.81607142857143,162.67559800033146L191.12589285714284,163.21298173481287L199.43571428571428,163.11667451720373L207.74553571428572,163.28336329536978L216.05535714285716,163.57166573626455L224.36517857142857,163.2611024068125L232.675,164.08922810154036L240.98482142857145,163.67331310784598L249.29464285714283,164.01926593629955L257.6044642857143,163.8036111081407L265.9142857142857,163.90997063861383L274.2241071428571,164.13801629278655" style="fill: none;" fill="none"></path></g></g></g></g></g></g><g transform="translate(39, 176)" clip-path="url(#clip_1)"><clipPath id="clip_1"><rect width="290" height="23"></rect></clipPath><g><g><line x1="0" y1="0" x2="0" y2="5" style="visibility: inherit;" fill="rgb(0, 0, 0)" stroke="rgb(204, 204, 204)" stroke-width="1px"></line><line x1="41.54910714285714" y1="0" x2="41.54910714285714" y2="5" style="visibility: inherit;" fill="rgb(0, 0, 0)" stroke="rgb(204, 204, 204)" stroke-width="1px"></line><line x1="83.09821428571428" y1="0" x2="83.09821428571428" y2="5" style="visibility: inherit;" fill="rgb(0, 0, 0)" stroke="rgb(204, 204, 204)" stroke-width="1px"></line><line x1="124.64732142857142" y1="0" x2="124.64732142857142" y2="5" style="visibility: inherit;" fill="rgb(0, 0, 0)" stroke="rgb(204, 204, 204)" stroke-width="1px"></line><line x1="166.19642857142856" y1="0" x2="166.19642857142856" y2="5" style="visibility: inherit;" fill="rgb(0, 0, 0)" stroke="rgb(204, 204, 204)" stroke-width="1px"></line><line x1="207.74553571428572" y1="0" x2="207.74553571428572" y2="5" style="visibility: inherit;" fill="rgb(0, 0, 0)" stroke="rgb(204, 204, 204)" stroke-width="1px"></line><line x1="249.29464285714283" y1="0" x2="249.29464285714283" y2="5" style="visibility: inherit;" fill="rgb(0, 0, 0)" stroke="rgb(204, 204, 204)" stroke-width="1px"></line><line x1="290.84375" y1="0" x2="290.84375" y2="5" style="visibility: inherit;" fill="rgb(0, 0, 0)" stroke="rgb(204, 204, 204)" stroke-width="1px"></line></g><g transform="translate(0, 8)"><text x="0" y="0" dx="0em" dy="0.95em" style="text-anchor: middle; visibility: hidden; font-family: &quot;Helvetica Neue&quot;, sans-serif; font-size: 12px; font-weight: 200;" fill="rgb(33, 33, 33)" stroke="none" stroke-width="1px">-5</text><text x="41.54910714285714" y="0" dx="0em" dy="0.95em" style="text-anchor: middle; visibility: inherit; font-family: &quot;Helvetica Neue&quot;, sans-serif; font-size: 12px; font-weight: 200;" fill="rgb(33, 33, 33)" stroke="none" stroke-width="1px">0</text><text x="83.09821428571428" y="0" dx="0em" dy="0.95em" style="text-anchor: middle; visibility: inherit; font-family: &quot;Helvetica Neue&quot;, sans-serif; font-size: 12px; font-weight: 200;" fill="rgb(33, 33, 33)" stroke="none" stroke-width="1px">5</text><text x="124.64732142857142" y="0" dx="0em" dy="0.95em" style="text-anchor: middle; visibility: inherit; font-family: &quot;Helvetica Neue&quot;, sans-serif; font-size: 12px; font-weight: 200;" fill="rgb(33, 33, 33)" stroke="none" stroke-width="1px">10</text><text x="166.19642857142856" y="0" dx="0em" dy="0.95em" style="text-anchor: middle; visibility: inherit; font-family: &quot;Helvetica Neue&quot;, sans-serif; font-size: 12px; font-weight: 200;" fill="rgb(33, 33, 33)" stroke="none" stroke-width="1px">15</text><text x="207.74553571428572" y="0" dx="0em" dy="0.95em" style="text-anchor: middle; visibility: inherit; font-family: &quot;Helvetica Neue&quot;, sans-serif; font-size: 12px; font-weight: 200;" fill="rgb(33, 33, 33)" stroke="none" stroke-width="1px">20</text><text x="249.29464285714283" y="0" dx="0em" dy="0.95em" style="text-anchor: middle; visibility: inherit; font-family: &quot;Helvetica Neue&quot;, sans-serif; font-size: 12px; font-weight: 200;" fill="rgb(33, 33, 33)" stroke="none" stroke-width="1px">25</text><text x="290.84375" y="0" dx="0em" dy="0.95em" style="text-anchor: middle; visibility: hidden; font-family: &quot;Helvetica Neue&quot;, sans-serif; font-size: 12px; font-weight: 200;" fill="rgb(33, 33, 33)" stroke="none" stroke-width="1px">30</text></g><line x1="0" y1="0" x2="290.84375" y2="0" fill="rgb(0, 0, 0)" stroke="rgb(204, 204, 204)" stroke-width="1px"></line></g></g></g></g></svg>